<svg width="216" height="48" viewBox="0 0 216 48" fill="none" xmlns="http://www.w3.org/2000/svg">
<path d="M20.3778 12.1307C20.2415 10.7557 19.6563 9.6875 18.6222 8.92614C17.5881 8.16477 16.1847 7.78409 14.4119 7.78409C13.2074 7.78409 12.1903 7.95454 11.3608 8.29545C10.5313 8.625 9.89489 9.08523 9.4517 9.67614C9.01989 10.267 8.80398 10.9375 8.80398 11.6875C8.78125 12.3125 8.91193 12.858 9.19602 13.3239C9.49148 13.7898 9.89489 14.1932 10.4062 14.5341C10.9176 14.8636 11.5085 15.1534 12.179 15.4034C12.8494 15.642 13.5653 15.8466 14.3267 16.017L17.4631 16.767C18.9858 17.108 20.3835 17.5625 21.6562 18.1307C22.929 18.6989 24.0313 19.3977 24.9631 20.2273C25.8949 21.0568 26.6165 22.0341 27.1278 23.1591C27.6506 24.2841 27.9176 25.5739 27.929 27.0284C27.9176 29.1648 27.3722 31.017 26.2926 32.5852C25.2244 34.142 23.679 35.3523 21.6562 36.2159C19.6449 37.0682 17.2188 37.4943 14.3778 37.4943C11.5597 37.4943 9.10511 37.0625 7.0142 36.1989C4.93466 35.3352 3.30966 34.0568 2.1392 32.3636C0.980114 30.6591 0.372159 28.5511 0.315341 26.0398H7.45739C7.53693 27.2102 7.87216 28.1875 8.46307 28.9716C9.06534 29.7443 9.86648 30.3295 10.8665 30.7273C11.8778 31.1136 13.0199 31.3068 14.2926 31.3068C15.5426 31.3068 16.6278 31.125 17.5483 30.7614C18.4801 30.3977 19.2017 29.892 19.7131 29.2443C20.2244 28.5966 20.4801 27.8523 20.4801 27.0114C20.4801 26.2273 20.2472 25.5682 19.7812 25.0341C19.3267 24.5 18.6563 24.0455 17.7699 23.6705C16.8949 23.2955 15.821 22.9545 14.5483 22.6477L10.7472 21.6932C7.80398 20.9773 5.48011 19.858 3.77557 18.3352C2.07102 16.8125 1.22443 14.7614 1.2358 12.1818C1.22443 10.0682 1.78693 8.22159 2.9233 6.64205C4.07102 5.0625 5.64489 3.82955 7.64489 2.94318C9.64489 2.05682 11.9176 1.61364 14.4631 1.61364C17.054 1.61364 19.3153 2.05682 21.2472 2.94318C23.1903 3.82955 24.7017 5.0625 25.7812 6.64205C26.8608 8.22159 27.4176 10.0511 27.4517 12.1307H20.3778ZM32.7571 37V10.8182H40.0185V37H32.7571ZM36.4048 7.44318C35.3253 7.44318 34.3991 7.08523 33.6264 6.36932C32.8651 5.64204 32.4844 4.77273 32.4844 3.76136C32.4844 2.76136 32.8651 1.90341 33.6264 1.1875C34.3991 0.460226 35.3253 0.0965891 36.4048 0.0965891C37.4844 0.0965891 38.4048 0.460226 39.1662 1.1875C39.9389 1.90341 40.3253 2.76136 40.3253 3.76136C40.3253 4.77273 39.9389 5.64204 39.1662 6.36932C38.4048 7.08523 37.4844 7.44318 36.4048 7.44318ZM59.7614 10.8182V16.2727H43.9943V10.8182H59.7614ZM47.5739 4.54545H54.8352V28.9545C54.8352 29.625 54.9375 30.1477 55.142 30.5227C55.3466 30.8864 55.6307 31.142 55.9943 31.2898C56.3693 31.4375 56.8011 31.5114 57.2898 31.5114C57.6307 31.5114 57.9716 31.483 58.3125 31.4261C58.6534 31.358 58.9148 31.3068 59.0966 31.2727L60.2386 36.6761C59.875 36.7898 59.3636 36.9205 58.7045 37.0682C58.0455 37.2273 57.2443 37.3239 56.3011 37.358C54.5511 37.4261 53.017 37.1932 51.6989 36.6591C50.392 36.125 49.375 35.2955 48.6477 34.1705C47.9205 33.0455 47.5625 31.625 47.5739 29.9091V4.54545ZM76.142 37.5114C73.4489 37.5114 71.1307 36.9659 69.1875 35.875C67.2557 34.7727 65.767 33.2159 64.7216 31.2045C63.6761 29.1818 63.1534 26.7898 63.1534 24.0284C63.1534 21.3352 63.6761 18.9716 64.7216 16.9375C65.767 14.9034 67.2386 13.3182 69.1364 12.1818C71.0455 11.0455 73.2841 10.4773 75.8523 10.4773C77.5795 10.4773 79.1875 10.7557 80.6761 11.3125C82.1761 11.858 83.483 12.6818 84.5966 13.7841C85.7216 14.8864 86.5966 16.2727 87.2216 17.9432C87.8466 19.6023 88.1591 21.5455 88.1591 23.7727V25.767H66.0511V21.267H81.3239C81.3239 20.2216 81.0966 19.2955 80.642 18.4886C80.1875 17.6818 79.5568 17.0511 78.75 16.5966C77.9545 16.1307 77.0284 15.8977 75.9716 15.8977C74.8693 15.8977 73.892 16.1534 73.0398 16.6648C72.1989 17.1648 71.5398 17.8409 71.0625 18.6932C70.5852 19.5341 70.3409 20.4716 70.3295 21.5057V25.7841C70.3295 27.0795 70.5682 28.1989 71.0455 29.142C71.5341 30.0852 72.2216 30.8125 73.108 31.3239C73.9943 31.8352 75.0455 32.0909 76.2614 32.0909C77.0682 32.0909 77.8068 31.9773 78.4773 31.75C79.1477 31.5227 79.7216 31.1818 80.1989 30.7273C80.6761 30.2727 81.0398 29.7159 81.2898 29.0568L88.0057 29.5C87.6648 31.1136 86.9659 32.5227 85.9091 33.7273C84.8636 34.9205 83.5114 35.8523 81.8523 36.5227C80.2045 37.1818 78.3011 37.5114 76.142 37.5114ZM104.143 37V2.09091H111.524V30.9148H126.49V37H104.143ZM143.071 37.5114C140.423 37.5114 138.134 36.9489 136.202 35.8239C134.281 34.6875 132.798 33.108 131.753 31.0852C130.707 29.0511 130.185 26.6932 130.185 24.0114C130.185 21.3068 130.707 18.9432 131.753 16.9205C132.798 14.8864 134.281 13.3068 136.202 12.1818C138.134 11.0455 140.423 10.4773 143.071 10.4773C145.719 10.4773 148.003 11.0455 149.923 12.1818C151.855 13.3068 153.344 14.8864 154.389 16.9205C155.435 18.9432 155.957 21.3068 155.957 24.0114C155.957 26.6932 155.435 29.0511 154.389 31.0852C153.344 33.108 151.855 34.6875 149.923 35.8239C148.003 36.9489 145.719 37.5114 143.071 37.5114ZM143.105 31.8864C144.31 31.8864 145.315 31.5455 146.122 30.8636C146.929 30.1705 147.537 29.2273 147.946 28.0341C148.366 26.8409 148.577 25.483 148.577 23.9602C148.577 22.4375 148.366 21.0795 147.946 19.8864C147.537 18.6932 146.929 17.75 146.122 17.0568C145.315 16.3636 144.31 16.017 143.105 16.017C141.889 16.017 140.866 16.3636 140.037 17.0568C139.219 17.75 138.599 18.6932 138.179 19.8864C137.77 21.0795 137.565 22.4375 137.565 23.9602C137.565 25.483 137.77 26.8409 138.179 28.0341C138.599 29.2273 139.219 30.1705 140.037 30.8636C140.866 31.5455 141.889 31.8864 143.105 31.8864ZM172.474 47.3636C170.122 47.3636 168.105 47.0398 166.423 46.392C164.753 45.7557 163.423 44.8864 162.435 43.7841C161.446 42.6818 160.804 41.4432 160.509 40.0682L167.224 39.1648C167.429 39.6875 167.753 40.1761 168.196 40.6307C168.639 41.0852 169.224 41.4489 169.952 41.7216C170.69 42.0057 171.588 42.1477 172.645 42.1477C174.224 42.1477 175.526 41.7614 176.548 40.9886C177.582 40.2273 178.099 38.9489 178.099 37.1534V32.3636H177.793C177.474 33.0909 176.997 33.7784 176.361 34.4261C175.724 35.0739 174.906 35.6023 173.906 36.0114C172.906 36.4205 171.713 36.625 170.327 36.625C168.361 36.625 166.571 36.1705 164.957 35.2614C163.355 34.3409 162.077 32.9375 161.122 31.0511C160.179 29.1534 159.707 26.7557 159.707 23.858C159.707 20.892 160.19 18.4148 161.156 16.4261C162.122 14.4375 163.406 12.9489 165.009 11.9602C166.622 10.9716 168.389 10.4773 170.31 10.4773C171.776 10.4773 173.003 10.7273 173.991 11.2273C174.98 11.7159 175.776 12.3295 176.378 13.0682C176.991 13.7955 177.463 14.5114 177.793 15.2159H178.065V10.8182H185.276V37.2557C185.276 39.483 184.73 41.3466 183.639 42.8466C182.548 44.3466 181.037 45.4716 179.105 46.2216C177.185 46.983 174.974 47.3636 172.474 47.3636ZM172.628 31.1705C173.798 31.1705 174.787 30.8807 175.594 30.3011C176.412 29.7102 177.037 28.8693 177.469 27.7784C177.912 26.6761 178.134 25.358 178.134 23.8239C178.134 22.2898 177.918 20.9602 177.486 19.8352C177.054 18.6989 176.429 17.8182 175.611 17.1932C174.793 16.5682 173.798 16.2557 172.628 16.2557C171.435 16.2557 170.429 16.5795 169.611 17.2273C168.793 17.8636 168.173 18.75 167.753 19.8864C167.332 21.0227 167.122 22.3352 167.122 23.8239C167.122 25.3352 167.332 26.642 167.753 27.7443C168.185 28.8352 168.804 29.6818 169.611 30.2841C170.429 30.875 171.435 31.1705 172.628 31.1705ZM202.884 37.5114C200.236 37.5114 197.946 36.9489 196.014 35.8239C194.094 34.6875 192.611 33.108 191.565 31.0852C190.52 29.0511 189.997 26.6932 189.997 24.0114C189.997 21.3068 190.52 18.9432 191.565 16.9205C192.611 14.8864 194.094 13.3068 196.014 12.1818C197.946 11.0455 200.236 10.4773 202.884 10.4773C205.531 10.4773 207.815 11.0455 209.736 12.1818C211.668 13.3068 213.156 14.8864 214.202 16.9205C215.247 18.9432 215.77 21.3068 215.77 24.0114C215.77 26.6932 215.247 29.0511 214.202 31.0852C213.156 33.108 211.668 34.6875 209.736 35.8239C207.815 36.9489 205.531 37.5114 202.884 37.5114ZM202.918 31.8864C204.122 31.8864 205.128 31.5455 205.935 30.8636C206.741 30.1705 207.349 29.2273 207.759 28.0341C208.179 26.8409 208.389 25.483 208.389 23.9602C208.389 22.4375 208.179 21.0795 207.759 19.8864C207.349 18.6932 206.741 17.75 205.935 17.0568C205.128 16.3636 204.122 16.017 202.918 16.017C201.702 16.017 200.679 16.3636 199.849 17.0568C199.031 17.75 198.412 18.6932 197.991 19.8864C197.582 21.0795 197.378 22.4375 197.378 23.9602C197.378 25.483 197.582 26.8409 197.991 28.0341C198.412 29.2273 199.031 30.1705 199.849 30.8636C200.679 31.5455 201.702 31.8864 202.918 31.8864Z" fill="white"/>
</svg>
